<svg xmlns="http://www.w3.org/2000/svg" xmlns:xlink="http://www.w3.org/1999/xlink" viewBox="0 0 24 30" version="1.1" x="0px" y="0px"><title>game_019-challenge-swords-match-attack-weapon</title><desc>Created with Sketch.</desc><g stroke="none" stroke-width="1" fill="none" fill-rule="evenodd"><g transform="translate(-429.000000, -93.000000)" fill="#000000"><g transform="translate(427.000000, 91.000000)"><g transform="translate(13.500000, 14.000000) rotate(45.000000) translate(-13.500000, -14.000000) translate(9.000000, 0.000000)"><path d="M4.91602515,0.777350098 C5.06920138,0.547585754 5.00711444,0.237151082 4.7773501,0.0839748528 C4.54758575,-0.0692013767 4.23715108,-0.00711444244 4.08397485,0.222649902 L2.08397485,3.2226499 C1.93079862,3.45241425 1.99288556,3.76284892 2.2226499,3.91602515 C2.45241425,4.06920138 2.76284892,4.00711444 2.91602515,3.7773501 L4.91602515,0.777350098 Z M6,11.2055817 C6,11.481724 6.22385763,11.7055817 6.5,11.7055817 C6.77614237,11.7055817 7,11.481724 7,11.2055817 L7,3.5 C7,3.22385763 6.77614237,3 6.5,3 C6.22385763,3 6,3.22385763 6,3.5 L6,11.2055817 Z"/><path d="M3,15.2880185 C3,15.0118761 2.77614237,14.7880185 2.5,14.7880185 C2.22385763,14.7880185 2,15.0118761 2,15.2880185 L2,18.5 C2,18.7761424 2.22385763,19 2.5,19 C2.77614237,19 3,18.7761424 3,18.5 L3,15.2880185 Z M3,3.5 C3,3.22385763 2.77614237,3 2.5,3 C2.22385763,3 2,3.22385763 2,3.5 L2,11.0678201 C2,11.3439625 2.22385763,11.5678201 2.5,11.5678201 C2.77614237,11.5678201 3,11.3439625 3,11.0678201 L3,3.5 Z M6.08397485,3.7773501 C6.23715108,4.00711444 6.54758575,4.06920138 6.7773501,3.91602515 C7.00711444,3.76284892 7.06920138,3.45241425 6.91602515,3.2226499 L4.91602515,0.222649902 C4.76284892,-0.00711444244 4.45241425,-0.0692013767 4.2226499,0.0839748528 C3.99288556,0.237151082 3.93079862,0.547585754 4.08397485,0.777350098 L6.08397485,3.7773501 Z M6,18.5 C6,18.7761424 6.22385763,19 6.5,19 C6.77614237,19 7,18.7761424 7,18.5 L7,15.365013 C7,15.0888706 6.77614237,14.865013 6.5,14.865013 C6.22385763,14.865013 6,15.0888706 6,15.365013 L6,18.5 Z"/><path d="M1.49703014,19 L7.50296986,19 C7.77876662,19 8,19.2213022 8,19.5 C8,19.7736673 7.77329975,20 7.50296986,20 L1.49703014,20 C1.22123338,20 1,19.7786978 1,19.5 C1,19.2263327 1.22670025,19 1.49703014,19 Z M1.49703014,21 L7.50296986,21 C8.32522156,21 9,20.3263157 9,19.5 C9,18.6690871 8.33112102,18 7.50296986,18 L1.49703014,18 C0.674778436,18 -1.15463195e-13,18.6736843 -1.15463195e-13,19.5 C-1.15463195e-13,20.3309129 0.668878983,21 1.49703014,21 Z"/><polygon points="3 23.5 4 23.5 4 20.5 3 20.5"/><polygon points="6 20.5 5 20.5 5 23.5 6 23.5"/><path d="M7,25.5 C7,24.1192881 5.88071187,23 4.5,23 C3.11928813,23 2,24.1192881 2,25.5 C2,26.8807119 3.11928813,28 4.5,28 C5.88071187,28 7,26.8807119 7,25.5 Z M3,25.5 C3,24.6715729 3.67157288,24 4.5,24 C5.32842712,24 6,24.6715729 6,25.5 C6,26.3284271 5.32842712,27 4.5,27 C3.67157288,27 3,26.3284271 3,25.5 Z"/><path d="M4,11.2825762 C4,11.5587186 4.22385763,11.7825762 4.5,11.7825762 C4.77614237,11.7825762 5,11.5587186 5,11.2825762 L5,5.5 C5,5.22385763 4.77614237,5 4.5,5 C4.22385763,5 4,5.22385763 4,5.5 L4,11.2825762 Z M4,18.5 C4,18.7761424 4.22385763,19 4.5,19 C4.77614237,19 5,18.7761424 5,18.5 L5,15.330659 C5,15.0545166 4.77614237,14.830659 4.5,14.830659 C4.22385763,14.830659 4,15.0545166 4,15.330659 L4,18.5 Z"/></g><g transform="translate(14.500000, 14.000000) scale(-1, 1) rotate(45.000000) translate(-14.500000, -14.000000) translate(10.000000, 0.000000)"><path d="M4.91602515,0.777350098 C5.06920138,0.547585754 5.00711444,0.237151082 4.7773501,0.0839748528 C4.54758575,-0.0692013767 4.23715108,-0.00711444244 4.08397485,0.222649902 L2.08397485,3.2226499 C1.93079862,3.45241425 1.99288556,3.76284892 2.2226499,3.91602515 C2.45241425,4.06920138 2.76284892,4.00711444 2.91602515,3.7773501 L4.91602515,0.777350098 Z M6,18.5 C6,18.7761424 6.22385763,19 6.5,19 C6.77614237,19 7,18.7761424 7,18.5 L7,3.5 C7,3.22385763 6.77614237,3 6.5,3 C6.22385763,3 6,3.22385763 6,3.5 L6,18.5 Z"/><path d="M3,3.5 C3,3.22385763 2.77614237,3 2.5,3 C2.22385763,3 2,3.22385763 2,3.5 L2,18.5 C2,18.7761424 2.22385763,19 2.5,19 C2.77614237,19 3,18.7761424 3,18.5 L3,3.5 Z M6.08397485,3.7773501 C6.23715108,4.00711444 6.54758575,4.06920138 6.7773501,3.91602515 C7.00711444,3.76284892 7.06920138,3.45241425 6.91602515,3.2226499 L4.91602515,0.222649902 C4.76284892,-0.00711444244 4.45241425,-0.0692013767 4.2226499,0.0839748528 C3.99288556,0.237151082 3.93079862,0.547585754 4.08397485,0.777350098 L6.08397485,3.7773501 Z"/><path d="M1.49703014,19 L7.50296986,19 C7.77876662,19 8,19.2213022 8,19.5 C8,19.7736673 7.77329975,20 7.50296986,20 L1.49703014,20 C1.22123338,20 1,19.7786978 1,19.5 C1,19.2263327 1.22670025,19 1.49703014,19 Z M1.49703014,21 L7.50296986,21 C8.32522156,21 9,20.3263157 9,19.5 C9,18.6690871 8.33112102,18 7.50296986,18 L1.49703014,18 C0.674778436,18 -1.17239551e-13,18.6736843 -1.17239551e-13,19.5 C-1.17239551e-13,20.3309129 0.668878983,21 1.49703014,21 Z"/><polygon points="3 23.5 4 23.5 4 20.5 3 20.5"/><polygon points="6 20.5 5 20.5 5 23.5 6 23.5"/><path d="M7,25.5 C7,24.1192881 5.88071187,23 4.5,23 C3.11928813,23 2,24.1192881 2,25.5 C2,26.8807119 3.11928813,28 4.5,28 C5.88071187,28 7,26.8807119 7,25.5 Z M3,25.5 C3,24.6715729 3.67157288,24 4.5,24 C5.32842712,24 6,24.6715729 6,25.5 C6,26.3284271 5.32842712,27 4.5,27 C3.67157288,27 3,26.3284271 3,25.5 Z"/><path d="M4,18.5 C4,18.7761424 4.22385763,19 4.5,19 C4.77614237,19 5,18.7761424 5,18.5 L5,5.5 C5,5.22385763 4.77614237,5 4.5,5 C4.22385763,5 4,5.22385763 4,5.5 L4,18.5 Z"/></g></g></g></g><text x="0" y="39" fill="#000000" font-size="5px" font-weight="bold" font-family="'Helvetica Neue', Helvetica, Arial-Unicode, Arial, Sans-serif">Created by Pham Thi Dieu Linh</text><text x="0" y="44" fill="#000000" font-size="5px" font-weight="bold" font-family="'Helvetica Neue', Helvetica, Arial-Unicode, Arial, Sans-serif">from the Noun Project</text></svg>