<?xml version="1.0" encoding="UTF-8"?>
<!DOCTYPE svg PUBLIC "-//W3C//DTD SVG 1.1//EN" "http://www.w3.org/Graphics/SVG/1.1/DTD/svg11.dtd">
<svg xmlns="http://www.w3.org/2000/svg" version="1.1" width="500px" height="500px" style="shape-rendering:geometricPrecision; text-rendering:geometricPrecision; image-rendering:optimizeQuality; fill-rule:evenodd; clip-rule:evenodd" xmlns:xlink="http://www.w3.org/1999/xlink">
<g><path style="opacity:0.655" fill="#707070" d="M 178.5,69.5 C 167.815,69.3897 157.148,69.723 146.5,70.5C 152.595,68.9865 158.928,68.3198 165.5,68.5C 170.013,68.5009 174.347,68.8343 178.5,69.5 Z"/></g>
<g><path style="opacity:0.999" fill="#030303" d="M 178.5,69.5 C 181.237,69.4013 183.904,69.7347 186.5,70.5C 187.918,72.3079 189.918,72.9746 192.5,72.5C 201.095,74.474 209.095,77.8074 216.5,82.5C 221.214,86.5458 226.214,90.2125 231.5,93.5C 233.452,96.1184 235.785,98.4518 238.5,100.5C 239.757,103.427 241.757,105.761 244.5,107.5C 244.427,109.027 245.094,110.027 246.5,110.5C 246.427,112.027 247.094,113.027 248.5,113.5C 248.427,115.027 249.094,116.027 250.5,116.5C 253.593,120.347 255.926,124.68 257.5,129.5C 257.77,133.358 259.103,136.691 261.5,139.5C 261.5,139.833 261.5,140.167 261.5,140.5C 261.41,143.152 262.076,145.485 263.5,147.5C 265.053,159.105 265.719,170.771 265.5,182.5C 265.574,186.984 264.907,191.317 263.5,195.5C 261.32,198.381 260.32,201.714 260.5,205.5C 257.453,214.596 253.12,222.93 247.5,230.5C 246.094,230.973 245.427,231.973 245.5,233.5C 245.5,234.167 245.167,234.5 244.5,234.5C 242.738,235.262 241.738,236.596 241.5,238.5C 237.5,241.833 233.833,245.5 230.5,249.5C 229.055,251.063 227.389,252.396 225.5,253.5C 224.227,254.077 224.227,254.743 225.5,255.5C 232.188,258.512 238.855,261.512 245.5,264.5C 246.492,264.328 247.158,264.662 247.5,265.5C 248.659,267.25 250.326,268.25 252.5,268.5C 252.973,269.906 253.973,270.573 255.5,270.5C 256.386,271.776 257.386,271.776 258.5,270.5C 259.63,269.378 260.297,268.044 260.5,266.5C 265.843,261.156 270.843,255.489 275.5,249.5C 275.833,248.5 276.5,247.833 277.5,247.5C 279.749,246.92 281.415,245.587 282.5,243.5C 284.949,240.444 287.949,238.111 291.5,236.5C 293.404,236.262 294.738,235.262 295.5,233.5C 297.027,233.573 298.027,232.906 298.5,231.5C 298.842,230.662 299.508,230.328 300.5,230.5C 302.848,230.408 304.514,229.408 305.5,227.5C 307.181,225.992 309.181,224.992 311.5,224.5C 314.534,224.817 315.534,223.817 314.5,221.5C 311.167,218.833 308.167,215.833 305.5,212.5C 305.262,210.596 304.262,209.262 302.5,208.5C 298.259,201.759 294.593,194.759 291.5,187.5C 289.402,182.458 287.902,177.124 287,171.5C 286.333,163.167 286.333,154.833 287,146.5C 287.191,144.292 287.691,142.292 288.5,140.5C 289.924,138.485 290.59,136.152 290.5,133.5C 290.232,131.901 290.566,130.568 291.5,129.5C 292.931,128.22 293.598,126.553 293.5,124.5C 295.008,122.819 296.008,120.819 296.5,118.5C 298.25,117.341 299.25,115.674 299.5,113.5C 302.209,110.792 304.542,107.792 306.5,104.5C 309.833,101.833 312.833,98.8333 315.5,95.5C 317.749,94.9202 319.415,93.5869 320.5,91.5C 324.439,89.5538 328.106,87.2205 331.5,84.5C 333.553,84.5979 335.22,83.9313 336.5,82.5C 340.502,80.3902 344.835,79.0569 349.5,78.5C 354.122,78.8439 358.455,78.1773 362.5,76.5C 367.112,75.3768 371.778,75.3768 376.5,76.5C 376.611,77.1174 376.944,77.6174 377.5,78C 380.482,78.498 383.482,78.6646 386.5,78.5C 391.093,79.0636 395.426,80.397 399.5,82.5C 401.849,84.341 404.515,85.6743 407.5,86.5C 409.147,88.3264 411.147,89.6597 413.5,90.5C 413.973,91.9063 414.973,92.573 416.5,92.5C 417.167,92.5 417.5,92.8333 417.5,93.5C 418.585,95.5869 420.251,96.9202 422.5,97.5C 422.5,99.5 423.5,100.5 425.5,100.5C 426.419,103.089 428.086,105.089 430.5,106.5C 430.738,108.404 431.738,109.738 433.5,110.5C 433.427,112.027 434.094,113.027 435.5,113.5C 435.427,115.027 436.094,116.027 437.5,116.5C 437.427,118.027 438.094,119.027 439.5,119.5C 442.975,128.426 445.975,137.426 448.5,146.5C 450.065,168.016 445.399,188.016 434.5,206.5C 432.217,209.956 429.717,213.29 427,216.5C 425.223,218.79 423.056,220.457 420.5,221.5C 419.227,222.077 419.227,222.743 420.5,223.5C 424.735,225.785 429.069,227.785 433.5,229.5C 434.492,229.328 435.158,229.662 435.5,230.5C 435.973,231.906 436.973,232.573 438.5,232.5C 439.492,232.328 440.158,232.662 440.5,233.5C 441.035,235.446 442.368,236.446 444.5,236.5C 445.035,238.446 446.368,239.446 448.5,239.5C 449.035,241.446 450.368,242.446 452.5,242.5C 454.833,244.5 457.167,246.5 459.5,248.5C 461.766,252.436 464.766,255.769 468.5,258.5C 469.08,260.749 470.413,262.415 472.5,263.5C 472.738,265.404 473.738,266.738 475.5,267.5C 475.738,269.404 476.738,270.738 478.5,271.5C 478.427,273.027 479.094,274.027 480.5,274.5C 481.338,274.842 481.672,275.508 481.5,276.5C 481.427,278.027 482.094,279.027 483.5,279.5C 484.338,279.842 484.672,280.508 484.5,281.5C 485.659,285.151 487.326,288.485 489.5,291.5C 493.263,301.788 496.597,312.121 499.5,322.5C 499.5,326.833 499.5,331.167 499.5,335.5C 497.539,340.099 495.539,344.765 493.5,349.5C 491.5,350.833 489.833,352.5 488.5,354.5C 488.167,355.5 487.5,356.167 486.5,356.5C 484.973,356.427 483.973,357.094 483.5,358.5C 483.158,359.338 482.492,359.672 481.5,359.5C 478.157,360.224 474.824,361.057 471.5,362C 422.834,362.5 374.168,362.667 325.5,362.5C 325.721,365.067 326.388,367.401 327.5,369.5C 333.988,385.654 332.654,400.987 323.5,415.5C 321.167,417.167 319.167,419.167 317.5,421.5C 313.032,425.734 307.699,428.401 301.5,429.5C 211.833,429.667 122.166,429.5 32.5,429C 29.5219,428.304 26.5219,427.804 23.5,427.5C 23.1667,427.5 22.8333,427.5 22.5,427.5C 22.0269,426.094 21.0269,425.427 19.5,425.5C 18.5084,425.672 17.8417,425.338 17.5,424.5C 16.7377,422.738 15.4044,421.738 13.5,421.5C 11.5,418.833 9.16667,416.5 6.5,414.5C 6.57298,412.973 5.90632,411.973 4.5,411.5C 4.3404,409.847 3.67373,408.514 2.5,407.5C 1.86993,403.952 0.86993,400.619 -0.5,397.5C -0.5,392.833 -0.5,388.167 -0.5,383.5C 2.32284,373.225 5.32284,362.892 8.5,352.5C 12.0699,345.691 15.4032,338.691 18.5,331.5C 20.4077,330.514 21.4077,328.848 21.5,326.5C 23.4077,325.514 24.4077,323.848 24.5,321.5C 25.9063,321.027 26.573,320.027 26.5,318.5C 27.9063,318.027 28.573,317.027 28.5,315.5C 30.2624,314.738 31.2624,313.404 31.5,311.5C 33.5869,310.415 34.9202,308.749 35.5,306.5C 37.2624,305.738 38.2624,304.404 38.5,302.5C 38.8333,301.5 39.5,300.833 40.5,300.5C 45.5,296.167 50.1667,291.5 54.5,286.5C 57.4274,285.243 59.7607,283.243 61.5,280.5C 63.4044,280.262 64.7377,279.262 65.5,277.5C 67.4044,277.262 68.7377,276.262 69.5,274.5C 71.0269,274.573 72.0269,273.906 72.5,272.5C 74.0269,272.573 75.0269,271.906 75.5,270.5C 77.0269,270.573 78.0269,269.906 78.5,268.5C 80.674,268.25 82.3406,267.25 83.5,265.5C 90.4843,262.675 97.151,259.341 103.5,255.5C 104.675,255.719 105.675,255.386 106.5,254.5C 106.376,253.893 106.043,253.56 105.5,253.5C 104.833,253.5 104.5,253.167 104.5,252.5C 103.738,250.738 102.404,249.738 100.5,249.5C 96.7852,245.119 92.7852,241.119 88.5,237.5C 88.573,235.973 87.9063,234.973 86.5,234.5C 84.7376,233.738 83.7376,232.404 83.5,230.5C 83.4456,228.368 82.4456,227.035 80.5,226.5C 76.4008,219.964 73.0674,212.964 70.5,205.5C 70.9227,203.219 70.256,201.552 68.5,200.5C 67.6993,198.958 67.366,197.292 67.5,195.5C 67.6641,192.813 67.4974,190.146 67,187.5C 66.7216,186.584 66.2216,185.918 65.5,185.5C 65.5,185.167 65.5,184.833 65.5,184.5C 65.1561,172.088 65.8228,159.754 67.5,147.5C 67.2322,145.901 67.5655,144.568 68.5,143.5C 70.411,139.767 71.7444,135.767 72.5,131.5C 74.2132,130.365 74.8799,128.698 74.5,126.5C 75.9063,126.027 76.573,125.027 76.5,123.5C 76.6596,121.847 77.3263,120.514 78.5,119.5C 79.9063,119.027 80.573,118.027 80.5,116.5C 81.9063,116.027 82.573,115.027 82.5,113.5C 82.427,111.973 83.0937,110.973 84.5,110.5C 86.2624,109.738 87.2624,108.404 87.5,106.5C 93.1667,100.167 99.1667,94.1667 105.5,88.5C 109.025,87.2411 112.025,85.2411 114.5,82.5C 121.804,77.5154 129.804,74.1821 138.5,72.5C 141.152,72.5905 143.485,71.9238 145.5,70.5C 145.833,70.5 146.167,70.5 146.5,70.5C 157.148,69.723 167.815,69.3897 178.5,69.5 Z M 161.5,98.5 C 168.203,98.838 174.87,99.5047 181.5,100.5C 181.833,100.5 182.167,100.5 182.5,100.5C 186.68,102.342 191.013,104.008 195.5,105.5C 196.514,106.674 197.847,107.34 199.5,107.5C 199.842,108.338 200.508,108.672 201.5,108.5C 201.973,109.906 202.973,110.573 204.5,110.5C 205.262,112.262 206.596,113.262 208.5,113.5C 211.833,117.5 215.5,121.167 219.5,124.5C 219.5,125.167 219.833,125.5 220.5,125.5C 220.738,127.404 221.738,128.738 223.5,129.5C 223.427,131.027 224.094,132.027 225.5,132.5C 225.328,133.492 225.662,134.158 226.5,134.5C 227.93,138.354 229.597,142.021 231.5,145.5C 232.702,150.647 234.035,155.647 235.5,160.5C 235.5,160.833 235.5,161.167 235.5,161.5C 235.705,169.867 235.371,178.2 234.5,186.5C 233.699,188.042 233.366,189.708 233.5,191.5C 231.591,195.666 229.925,199.999 228.5,204.5C 224.257,209.983 220.257,215.65 216.5,221.5C 214.5,222.833 212.833,224.5 211.5,226.5C 209.251,227.08 207.585,228.413 206.5,230.5C 204.973,230.427 203.973,231.094 203.5,232.5C 201.973,232.427 200.973,233.094 200.5,234.5C 193.558,237.587 186.558,240.254 179.5,242.5C 172.863,243.276 166.196,243.609 159.5,243.5C 151.613,242.278 143.946,240.278 136.5,237.5C 134.365,235.929 132.032,234.596 129.5,233.5C 129.158,232.662 128.492,232.328 127.5,232.5C 126.564,231.026 125.23,230.026 123.5,229.5C 123.027,228.094 122.027,227.427 120.5,227.5C 120.167,226.5 119.5,225.833 118.5,225.5C 117.833,224.167 116.833,223.167 115.5,222.5C 114.581,219.911 112.914,217.911 110.5,216.5C 110.262,214.596 109.262,213.262 107.5,212.5C 107.573,210.973 106.906,209.973 105.5,209.5C 105.573,207.973 104.906,206.973 103.5,206.5C 102.773,204.046 101.773,201.713 100.5,199.5C 99.871,196.603 98.871,193.936 97.5,191.5C 97.7678,189.901 97.4345,188.568 96.5,187.5C 95.6462,178.195 95.3129,168.861 95.5,159.5C 96.4511,158.081 96.7845,156.415 96.5,154.5C 98.9008,147.017 101.901,139.684 105.5,132.5C 106.906,132.027 107.573,131.027 107.5,129.5C 108.906,129.027 109.573,128.027 109.5,126.5C 110.167,126.5 110.5,126.167 110.5,125.5C 114.833,121.833 118.833,117.833 122.5,113.5C 124.404,113.262 125.738,112.262 126.5,110.5C 128.027,110.573 129.027,109.906 129.5,108.5C 130.492,108.672 131.158,108.338 131.5,107.5C 134.485,106.674 137.151,105.341 139.5,103.5C 141.786,103.405 143.786,102.738 145.5,101.5C 150.961,100.492 156.294,99.4918 161.5,98.5 Z M 379.5,107.5 C 384.099,109.461 388.765,111.461 393.5,113.5C 393.973,114.906 394.973,115.573 396.5,115.5C 397.262,117.262 398.596,118.262 400.5,118.5C 401.833,120.5 403.5,122.167 405.5,123.5C 410.397,129.077 414.064,135.41 416.5,142.5C 417.072,147.836 417.738,153.17 418.5,158.5C 417.75,164.165 417.083,169.832 416.5,175.5C 414.98,177.89 413.98,180.557 413.5,183.5C 412.094,183.973 411.427,184.973 411.5,186.5C 410.662,186.842 410.328,187.508 410.5,188.5C 409.094,188.973 408.427,189.973 408.5,191.5C 404.833,194.5 401.5,197.833 398.5,201.5C 396.973,201.427 395.973,202.094 395.5,203.5C 393.973,203.427 392.973,204.094 392.5,205.5C 390.716,205.893 389.05,206.559 387.5,207.5C 374.172,211.499 360.838,211.499 347.5,207.5C 347.158,206.662 346.492,206.328 345.5,206.5C 344.71,205.599 343.71,204.932 342.5,204.5C 336.563,201.229 331.563,196.895 327.5,191.5C 327.573,189.973 326.906,188.973 325.5,188.5C 325.573,186.973 324.906,185.973 323.5,185.5C 323.34,183.847 322.674,182.514 321.5,181.5C 321.02,178.557 320.02,175.89 318.5,173.5C 314.99,157.095 317.656,141.762 326.5,127.5C 328.914,126.089 330.581,124.089 331.5,121.5C 334.089,120.581 336.089,118.914 337.5,116.5C 338.167,116.5 338.5,116.167 338.5,115.5C 351.125,107.783 364.792,105.117 379.5,107.5 Z M 400.5,247.5 C 402.102,249.074 404.102,249.741 406.5,249.5C 411.795,252.147 417.128,254.814 422.5,257.5C 422.973,258.906 423.973,259.573 425.5,259.5C 426.262,261.262 427.596,262.262 429.5,262.5C 430.585,264.587 432.251,265.92 434.5,266.5C 437.167,269.833 440.167,272.833 443.5,275.5C 443.5,276.167 443.833,276.5 444.5,276.5C 444.738,278.404 445.738,279.738 447.5,280.5C 447.833,281.5 448.5,282.167 449.5,282.5C 449.427,284.027 450.094,285.027 451.5,285.5C 451.427,287.027 452.094,288.027 453.5,288.5C 453.932,289.71 454.599,290.71 455.5,291.5C 456.263,293.368 457.263,295.035 458.5,296.5C 463.154,307.129 466.821,318.129 469.5,329.5C 468.873,330.417 468.539,331.417 468.5,332.5C 416.428,332.829 364.428,332.495 312.5,331.5C 312.573,329.973 311.906,328.973 310.5,328.5C 310.672,327.508 310.338,326.842 309.5,326.5C 309.573,324.973 308.906,323.973 307.5,323.5C 307.573,321.973 306.906,320.973 305.5,320.5C 305.573,318.973 304.906,317.973 303.5,317.5C 303.573,315.973 302.906,314.973 301.5,314.5C 301.262,312.596 300.262,311.262 298.5,310.5C 298.262,308.596 297.262,307.262 295.5,306.5C 294.581,303.911 292.914,301.911 290.5,300.5C 288.107,296.598 285.107,293.098 281.5,290C 283.232,288.028 284.565,285.861 285.5,283.5C 286.906,283.027 287.573,282.027 287.5,280.5C 288.167,280.5 288.5,280.167 288.5,279.5C 290.587,278.415 291.92,276.749 292.5,274.5C 294.833,272.833 296.833,270.833 298.5,268.5C 300.027,268.573 301.027,267.906 301.5,266.5C 309.723,259.613 318.723,253.946 328.5,249.5C 341.336,245.433 354.503,243.1 368,242.5C 379.061,242.82 389.894,244.486 400.5,247.5 Z M 185.5,275.5 C 185.833,275.5 186.167,275.5 186.5,275.5C 189.589,276.785 192.922,277.451 196.5,277.5C 202.616,279.87 208.949,281.87 215.5,283.5C 218.088,285.625 221.088,286.958 224.5,287.5C 228.182,290.008 232.182,292.008 236.5,293.5C 236.973,294.906 237.973,295.573 239.5,295.5C 239.973,296.906 240.973,297.573 242.5,297.5C 242.973,298.906 243.973,299.573 245.5,299.5C 246.262,301.262 247.596,302.262 249.5,302.5C 250.585,304.587 252.251,305.92 254.5,306.5C 254.833,307.5 255.5,308.167 256.5,308.5C 261.528,313.86 266.528,319.193 271.5,324.5C 271.738,326.404 272.738,327.738 274.5,328.5C 275.124,330.754 276.457,332.421 278.5,333.5C 283.706,341.914 288.373,350.581 292.5,359.5C 295.304,368.046 297.804,376.713 300,385.5C 300.694,389.554 300.527,393.554 299.5,397.5C 298.118,398.801 296.452,399.634 294.5,400C 207.472,400.825 120.472,400.659 33.5,399.5C 33.1667,398.5 32.5,397.833 31.5,397.5C 31.0388,395.45 30.3721,393.45 29.5,391.5C 32.164,378.844 35.8307,366.51 40.5,354.5C 44.301,346.905 48.6344,339.572 53.5,332.5C 54.9063,332.027 55.573,331.027 55.5,329.5C 56.1667,329.5 56.5,329.167 56.5,328.5C 57.9063,328.027 58.573,327.027 58.5,325.5C 59.1667,325.5 59.5,325.167 59.5,324.5C 61.914,323.089 63.5806,321.089 64.5,318.5C 75.0939,307.225 87.0939,297.892 100.5,290.5C 127.27,276.88 155.603,271.88 185.5,275.5 Z"/></g>
<g><path style="opacity:0.753" fill="#727272" d="M 145.5,70.5 C 143.485,71.9238 141.152,72.5905 138.5,72.5C 140.515,71.0762 142.848,70.4095 145.5,70.5 Z"/></g>
<g><path style="opacity:0.816" fill="#666666" d="M 186.5,70.5 C 188.786,70.595 190.786,71.2616 192.5,72.5C 189.918,72.9746 187.918,72.3079 186.5,70.5 Z"/></g>
<g><path style="opacity:0.922" fill="#3b3b3b" d="M 362.5,76.5 C 358.455,78.1773 354.122,78.8439 349.5,78.5C 353.567,76.9462 357.9,76.2796 362.5,76.5 Z"/></g>
<g><path style="opacity:0.912" fill="#626262" d="M 376.5,76.5 C 380.078,76.5488 383.411,77.2154 386.5,78.5C 383.482,78.6646 380.482,78.498 377.5,78C 376.944,77.6174 376.611,77.1174 376.5,76.5 Z"/></g>
<g><path style="opacity:0.071" fill="#cfcfcf" d="M 336.5,82.5 C 335.22,83.9313 333.553,84.5979 331.5,84.5C 332.78,83.0687 334.447,82.4021 336.5,82.5 Z"/></g>
<g><path style="opacity:0.071" fill="#cecece" d="M 114.5,82.5 C 112.025,85.2411 109.025,87.2411 105.5,88.5C 107.951,85.7232 110.951,83.7232 114.5,82.5 Z"/></g>
<g><path style="opacity:0.022" fill="#ededed" d="M 399.5,82.5 C 402.754,82.7936 405.421,84.127 407.5,86.5C 404.515,85.6743 401.849,84.341 399.5,82.5 Z"/></g>
<g><path style="opacity:0.09" fill="#cdcdcd" d="M 331.5,84.5 C 328.106,87.2205 324.439,89.5538 320.5,91.5C 323.358,87.9905 327.024,85.6571 331.5,84.5 Z"/></g>
<g><path style="opacity:0.098" fill="#cdcdcd" d="M 407.5,86.5 C 410.198,86.8449 412.198,88.1782 413.5,90.5C 411.147,89.6597 409.147,88.3264 407.5,86.5 Z"/></g>
<g><path style="opacity:0.008" fill="#d5d5d5" d="M 216.5,82.5 C 222.348,85.015 227.348,88.6817 231.5,93.5C 226.214,90.2125 221.214,86.5458 216.5,82.5 Z"/></g>
<g><path style="opacity:0.031" fill="#d7d7d7" d="M 413.5,90.5 C 415.027,90.427 416.027,91.0937 416.5,92.5C 414.973,92.573 413.973,91.9063 413.5,90.5 Z"/></g>
<g><path style="opacity:0.02" fill="#c6c6c6" d="M 417.5,93.5 C 419.749,94.0798 421.415,95.4131 422.5,97.5C 420.251,96.9202 418.585,95.5869 417.5,93.5 Z"/></g>
<g><path style="opacity:0.004" fill="#d1d1d1" d="M 231.5,93.5 C 234.855,94.8552 237.189,97.1886 238.5,100.5C 235.785,98.4518 233.452,96.1184 231.5,93.5 Z"/></g>
<g><path style="opacity:0.682" fill="#919191" d="M 320.5,91.5 C 319.415,93.5869 317.749,94.9202 315.5,95.5C 316.585,93.4131 318.251,92.0798 320.5,91.5 Z"/></g>
<g><path style="opacity:0.282" fill="#b7b7b7" d="M 105.5,88.5 C 99.1667,94.1667 93.1667,100.167 87.5,106.5C 91.8333,98.8333 97.8333,92.8333 105.5,88.5 Z"/></g>
<g><path style="opacity:0.644" fill="#5a5a5a" d="M 156.5,98.5 C 161.65,97.3493 166.984,97.1826 172.5,98C 175.851,98.0572 178.851,98.8906 181.5,100.5C 174.87,99.5047 168.203,98.838 161.5,98.5C 159.833,98.5 158.167,98.5 156.5,98.5 Z"/></g>
<g><path style="opacity:0.427" fill="#bdbdbd" d="M 315.5,95.5 C 312.833,98.8333 309.833,101.833 306.5,104.5C 308.5,100.5 311.5,97.5 315.5,95.5 Z"/></g>
<g><path style="opacity:0.663" fill="#8f8f8f" d="M 422.5,97.5 C 423.833,98.1667 424.833,99.1667 425.5,100.5C 423.5,100.5 422.5,99.5 422.5,97.5 Z"/></g>
<g><path style="opacity:0.306" fill="#a2a2a2" d="M 156.5,98.5 C 158.167,98.5 159.833,98.5 161.5,98.5C 156.294,99.4918 150.961,100.492 145.5,101.5C 148.763,99.4318 152.43,98.4318 156.5,98.5 Z"/></g>
<g><path style="opacity:0.643" fill="#929292" d="M 182.5,100.5 C 187.464,100.816 191.797,102.483 195.5,105.5C 191.013,104.008 186.68,102.342 182.5,100.5 Z"/></g>
<g><path style="opacity:0.682" fill="#a4a4a4" d="M 238.5,100.5 C 241.243,102.239 243.243,104.573 244.5,107.5C 241.757,105.761 239.757,103.427 238.5,100.5 Z"/></g>
<g><path style="opacity:0.655" fill="#9a9a9a" d="M 425.5,100.5 C 427.914,101.911 429.581,103.911 430.5,106.5C 428.086,105.089 426.419,103.089 425.5,100.5 Z"/></g>
<g><path style="opacity:0.259" fill="#b8b8b8" d="M 145.5,101.5 C 143.786,102.738 141.786,103.405 139.5,103.5C 141.102,101.926 143.102,101.259 145.5,101.5 Z"/></g>
<g><path style="opacity:0.38" fill="#afafaf" d="M 139.5,103.5 C 137.151,105.341 134.485,106.674 131.5,107.5C 133.579,105.127 136.246,103.794 139.5,103.5 Z"/></g>
<g><path style="opacity:0.333" fill="#b6b6b6" d="M 195.5,105.5 C 197.38,105.229 198.713,105.896 199.5,107.5C 197.847,107.34 196.514,106.674 195.5,105.5 Z"/></g>
<g><path style="opacity:0.796" fill="#777777" d="M 87.5,106.5 C 87.2624,108.404 86.2624,109.738 84.5,110.5C 84.7376,108.596 85.7376,107.262 87.5,106.5 Z"/></g>
<g><path style="opacity:0.302" fill="#b6b6b6" d="M 306.5,104.5 C 304.542,107.792 302.209,110.792 299.5,113.5C 300.694,109.637 303.027,106.637 306.5,104.5 Z"/></g>
<g><path style="opacity:0.6" fill="#838383" d="M 430.5,106.5 C 432.262,107.262 433.262,108.596 433.5,110.5C 431.738,109.738 430.738,108.404 430.5,106.5 Z"/></g>
<g><path style="opacity:0.047" fill="#cbcbcb" d="M 129.5,108.5 C 129.027,109.906 128.027,110.573 126.5,110.5C 126.973,109.094 127.973,108.427 129.5,108.5 Z"/></g>
<g><path style="opacity:0.337" fill="#adadad" d="M 201.5,108.5 C 203.027,108.427 204.027,109.094 204.5,110.5C 202.973,110.573 201.973,109.906 201.5,108.5 Z"/></g>
<g><path style="opacity:0.435" fill="#a2a2a2" d="M 244.5,107.5 C 245.906,107.973 246.573,108.973 246.5,110.5C 245.094,110.027 244.427,109.027 244.5,107.5 Z"/></g>
<g><path style="opacity:0.271" fill="#aeaeae" d="M 379.5,107.5 C 364.792,105.117 351.125,107.783 338.5,115.5C 350.817,105.723 364.483,103.057 379.5,107.5 Z"/></g>
<g><path style="opacity:0.067" fill="#d3d3d3" d="M 126.5,110.5 C 125.738,112.262 124.404,113.262 122.5,113.5C 123.262,111.738 124.596,110.738 126.5,110.5 Z"/></g>
<g><path style="opacity:0.384" fill="#b3b3b3" d="M 204.5,110.5 C 206.404,110.738 207.738,111.738 208.5,113.5C 206.596,113.262 205.262,112.262 204.5,110.5 Z"/></g>
<g><path style="opacity:0.165" fill="#c6c6c6" d="M 379.5,107.5 C 384.937,107.89 389.604,109.89 393.5,113.5C 388.765,111.461 384.099,109.461 379.5,107.5 Z"/></g>
<g><path style="opacity:0.541" fill="#898989" d="M 246.5,110.5 C 247.906,110.973 248.573,111.973 248.5,113.5C 247.094,113.027 246.427,112.027 246.5,110.5 Z"/></g>
<g><path style="opacity:0.506" fill="#8a8a8a" d="M 433.5,110.5 C 434.906,110.973 435.573,111.973 435.5,113.5C 434.094,113.027 433.427,112.027 433.5,110.5 Z"/></g>
<g><path style="opacity:0.122" fill="#dadada" d="M 393.5,113.5 C 395.027,113.427 396.027,114.094 396.5,115.5C 394.973,115.573 393.973,114.906 393.5,113.5 Z"/></g>
<g><path style="opacity:0.6" fill="#767676" d="M 82.5,113.5 C 82.573,115.027 81.9063,116.027 80.5,116.5C 80.427,114.973 81.0937,113.973 82.5,113.5 Z"/></g>
<g><path style="opacity:0.506" fill="#898989" d="M 248.5,113.5 C 249.906,113.973 250.573,114.973 250.5,116.5C 249.094,116.027 248.427,115.027 248.5,113.5 Z"/></g>
<g><path style="opacity:0.106" fill="#d7d7d7" d="M 299.5,113.5 C 299.25,115.674 298.25,117.341 296.5,118.5C 296.75,116.326 297.75,114.659 299.5,113.5 Z"/></g>
<g><path style="opacity:0.435" fill="#989898" d="M 435.5,113.5 C 436.906,113.973 437.573,114.973 437.5,116.5C 436.094,116.027 435.427,115.027 435.5,113.5 Z"/></g>
<g><path style="opacity:0.353" fill="#c0c0c0" d="M 208.5,113.5 C 213.167,116.167 216.833,119.833 219.5,124.5C 215.5,121.167 211.833,117.5 208.5,113.5 Z"/></g>
<g><path style="opacity:0.239" fill="#d3d3d3" d="M 396.5,115.5 C 398.404,115.738 399.738,116.738 400.5,118.5C 398.596,118.262 397.262,117.262 396.5,115.5 Z"/></g>
<g><path style="opacity:0.467" fill="#8f8f8f" d="M 80.5,116.5 C 80.573,118.027 79.9063,119.027 78.5,119.5C 78.427,117.973 79.0937,116.973 80.5,116.5 Z"/></g>
<g><path style="opacity:0.62" fill="#a9a9a9" d="M 400.5,118.5 C 403.167,119.167 404.833,120.833 405.5,123.5C 403.5,122.167 401.833,120.5 400.5,118.5 Z"/></g>
<g><path style="opacity:0.263" fill="#bdbdbd" d="M 437.5,116.5 C 438.906,116.973 439.573,117.973 439.5,119.5C 438.094,119.027 437.427,118.027 437.5,116.5 Z"/></g>
<g><path style="opacity:0.008" fill="#dbdbdb" d="M 122.5,113.5 C 118.833,117.833 114.833,121.833 110.5,125.5C 113.5,120.5 117.5,116.5 122.5,113.5 Z"/></g>
<g><path style="opacity:0.004" fill="#ebebeb" d="M 337.5,116.5 C 336.089,118.914 334.089,120.581 331.5,121.5C 332.911,119.086 334.911,117.419 337.5,116.5 Z"/></g>
<g><path style="opacity:0.02" fill="#ededed" d="M 296.5,118.5 C 296.008,120.819 295.008,122.819 293.5,124.5C 293.461,121.911 294.461,119.911 296.5,118.5 Z"/></g>
<g><path style="opacity:0.247" fill="#b5b5b5" d="M 76.5,123.5 C 76.573,125.027 75.9063,126.027 74.5,126.5C 74.427,124.973 75.0937,123.973 76.5,123.5 Z"/></g>
<g><path style="opacity:0.039" fill="#cecece" d="M 331.5,121.5 C 330.581,124.089 328.914,126.089 326.5,127.5C 327.419,124.911 329.086,122.911 331.5,121.5 Z"/></g>
<g><path style="opacity:0.02" fill="#e4e4e4" d="M 293.5,124.5 C 293.598,126.553 292.931,128.22 291.5,129.5C 291.402,127.447 292.069,125.78 293.5,124.5 Z"/></g>
<g><path style="opacity:0.047" fill="#c1c1c1" d="M 109.5,126.5 C 109.573,128.027 108.906,129.027 107.5,129.5C 107.427,127.973 108.094,126.973 109.5,126.5 Z"/></g>
<g><path style="opacity:0.082" fill="#c2c2c2" d="M 220.5,125.5 C 222.262,126.262 223.262,127.596 223.5,129.5C 221.738,128.738 220.738,127.404 220.5,125.5 Z"/></g>
<g><path style="opacity:0.082" fill="#c8c8c8" d="M 439.5,119.5 C 444.676,127.693 447.676,136.693 448.5,146.5C 445.975,137.426 442.975,128.426 439.5,119.5 Z"/></g>
<g><path style="opacity:0.824" fill="#787878" d="M 74.5,126.5 C 74.8799,128.698 74.2132,130.365 72.5,131.5C 72.7959,129.597 73.4625,127.93 74.5,126.5 Z"/></g>
<g><path style="opacity:0.18" fill="#c2c2c2" d="M 107.5,129.5 C 107.573,131.027 106.906,132.027 105.5,132.5C 105.427,130.973 106.094,129.973 107.5,129.5 Z"/></g>
<g><path style="opacity:0.204" fill="#b8b8b8" d="M 223.5,129.5 C 224.906,129.973 225.573,130.973 225.5,132.5C 224.094,132.027 223.427,131.027 223.5,129.5 Z"/></g>
<g><path style="opacity:0.859" fill="#707070" d="M 257.5,129.5 C 259.4,132.518 260.733,135.851 261.5,139.5C 259.103,136.691 257.77,133.358 257.5,129.5 Z"/></g>
<g><path style="opacity:0.804" fill="#8b8b8b" d="M 72.5,131.5 C 71.7444,135.767 70.411,139.767 68.5,143.5C 68.8606,139.085 70.1939,135.085 72.5,131.5 Z"/></g>
<g><path style="opacity:0.165" fill="#bebebe" d="M 326.5,127.5 C 317.656,141.762 314.99,157.095 318.5,173.5C 314.284,161.459 314.784,149.459 320,137.5C 321.444,133.589 323.611,130.256 326.5,127.5 Z"/></g>
<g><path style="opacity:0.306" fill="#adadad" d="M 226.5,134.5 C 229.496,137.497 231.163,141.164 231.5,145.5C 229.597,142.021 227.93,138.354 226.5,134.5 Z"/></g>
<g><path style="opacity:0.682" fill="#787878" d="M 290.5,133.5 C 290.59,136.152 289.924,138.485 288.5,140.5C 288.41,137.848 289.076,135.515 290.5,133.5 Z"/></g>
<g><path style="opacity:0.318" fill="#a6a6a6" d="M 105.5,132.5 C 101.901,139.684 98.9008,147.017 96.5,154.5C 97.3214,146.201 100.321,138.868 105.5,132.5 Z"/></g>
<g><path style="opacity:0.584" fill="#888888" d="M 261.5,140.5 C 262.924,142.515 263.59,144.848 263.5,147.5C 262.076,145.485 261.41,143.152 261.5,140.5 Z"/></g>
<g><path style="opacity:0.573" fill="#a0a0a0" d="M 231.5,145.5 C 232.966,146.347 233.8,147.68 234,149.5C 234.936,153.114 235.436,156.78 235.5,160.5C 234.035,155.647 232.702,150.647 231.5,145.5 Z"/></g>
<g><path style="opacity:0.82" fill="#7d7d7d" d="M 263.5,147.5 C 264.832,151.264 265.665,155.264 266,159.5C 266.822,167.345 266.656,175.011 265.5,182.5C 265.719,170.771 265.053,159.105 263.5,147.5 Z"/></g>
<g><path style="opacity:0.071" fill="#dbdbdb" d="M 416.5,142.5 C 418.866,147.102 419.866,152.102 419.5,157.5C 419.6,163.825 418.6,169.825 416.5,175.5C 417.083,169.832 417.75,164.165 418.5,158.5C 417.738,153.17 417.072,147.836 416.5,142.5 Z"/></g>
<g><path style="opacity:0.496" fill="#919191" d="M 67.5,147.5 C 65.8228,159.754 65.1561,172.088 65.5,184.5C 64.3431,176.01 64.1764,167.343 65,158.5C 65.2415,154.57 66.0749,150.903 67.5,147.5 Z"/></g>
<g><path style="opacity:0.071" fill="#c1c1c1" d="M 318.5,173.5 C 320.02,175.89 321.02,178.557 321.5,181.5C 319.018,179.497 318.018,176.831 318.5,173.5 Z"/></g>
<g><path style="opacity:0.851" fill="#828282" d="M 235.5,161.5 C 236.656,169.323 236.823,177.323 236,185.5C 235.617,186.056 235.117,186.389 234.5,186.5C 235.371,178.2 235.705,169.867 235.5,161.5 Z"/></g>
<g><path style="opacity:0.212" fill="#d0d0d0" d="M 321.5,181.5 C 322.674,182.514 323.34,183.847 323.5,185.5C 321.896,184.713 321.229,183.38 321.5,181.5 Z"/></g>
<g><path style="opacity:0.886" fill="#838383" d="M 95.5,159.5 C 95.3129,168.861 95.6462,178.195 96.5,187.5C 95.8826,187.389 95.3826,187.056 95,186.5C 94.176,177.324 94.3427,168.324 95.5,159.5 Z"/></g>
<g><path style="opacity:0.345" fill="#aaaaaa" d="M 413.5,183.5 C 413.573,185.027 412.906,186.027 411.5,186.5C 411.427,184.973 412.094,183.973 413.5,183.5 Z"/></g>
<g><path style="opacity:0.102" fill="#c8c8c8" d="M 448.5,146.5 C 451.081,162.223 449.247,177.556 443,192.5C 440.894,197.73 438.061,202.397 434.5,206.5C 445.399,188.016 450.065,168.016 448.5,146.5 Z"/></g>
<g><path style="opacity:0.094" fill="#e1e1e1" d="M 323.5,185.5 C 324.906,185.973 325.573,186.973 325.5,188.5C 324.094,188.027 323.427,187.027 323.5,185.5 Z"/></g>
<g><path style="opacity:0.573" fill="#8e8e8e" d="M 65.5,185.5 C 66.2216,185.918 66.7216,186.584 67,187.5C 67.4974,190.146 67.6641,192.813 67.5,195.5C 66.2154,192.411 65.5488,189.078 65.5,185.5 Z"/></g>
<g><path style="opacity:0.145" fill="#dbdbdb" d="M 325.5,188.5 C 326.906,188.973 327.573,189.973 327.5,191.5C 326.094,191.027 325.427,190.027 325.5,188.5 Z"/></g>
<g><path style="opacity:0.569" fill="#828282" d="M 410.5,188.5 C 410.573,190.027 409.906,191.027 408.5,191.5C 408.427,189.973 409.094,188.973 410.5,188.5 Z"/></g>
<g><path style="opacity:0.659" fill="#929292" d="M 97.5,191.5 C 98.871,193.936 99.871,196.603 100.5,199.5C 98.3455,197.383 97.3455,194.716 97.5,191.5 Z"/></g>
<g><path style="opacity:0.592" fill="#8e8e8e" d="M 263.5,195.5 C 263.101,199.116 262.101,202.45 260.5,205.5C 260.32,201.714 261.32,198.381 263.5,195.5 Z"/></g>
<g><path style="opacity:0.016" fill="#dfdfdf" d="M 291.5,187.5 C 294.593,194.759 298.259,201.759 302.5,208.5C 296.485,202.807 292.819,195.807 291.5,187.5 Z"/></g>
<g><path style="opacity:0.675" fill="#747474" d="M 408.5,191.5 C 406.167,195.833 402.833,199.167 398.5,201.5C 401.5,197.833 404.833,194.5 408.5,191.5 Z"/></g>
<g><path style="opacity:0.306" fill="#9e9e9e" d="M 233.5,191.5 C 233.193,196.43 231.527,200.763 228.5,204.5C 229.925,199.999 231.591,195.666 233.5,191.5 Z"/></g>
<g><path style="opacity:0.722" fill="#888888" d="M 68.5,200.5 C 70.256,201.552 70.9227,203.219 70.5,205.5C 69.4625,204.07 68.7959,202.403 68.5,200.5 Z"/></g>
<g><path style="opacity:0.671" fill="#848484" d="M 398.5,201.5 C 398.027,202.906 397.027,203.573 395.5,203.5C 395.973,202.094 396.973,201.427 398.5,201.5 Z"/></g>
<g><path style="opacity:0.718" fill="#7d7d7d" d="M 395.5,203.5 C 395.027,204.906 394.027,205.573 392.5,205.5C 392.973,204.094 393.973,203.427 395.5,203.5 Z"/></g>
<g><path style="opacity:0.784" fill="#949494" d="M 342.5,204.5 C 343.71,204.932 344.71,205.599 345.5,206.5C 343.821,206.715 342.821,206.048 342.5,204.5 Z"/></g>
<g><path style="opacity:0.294" fill="#bbbbbb" d="M 103.5,206.5 C 104.906,206.973 105.573,207.973 105.5,209.5C 104.094,209.027 103.427,208.027 103.5,206.5 Z"/></g>
<g><path style="opacity:0.012" fill="#cecece" d="M 302.5,208.5 C 304.262,209.262 305.262,210.596 305.5,212.5C 303.738,211.738 302.738,210.404 302.5,208.5 Z"/></g>
<g><path style="opacity:0.059" fill="#cdcdcd" d="M 347.5,207.5 C 360.838,211.499 374.172,211.499 387.5,207.5C 386.653,208.966 385.32,209.8 383.5,210C 373.151,213.233 362.818,213.233 352.5,210C 350.509,209.626 348.842,208.793 347.5,207.5 Z"/></g>
<g><path style="opacity:0.227" fill="#cccccc" d="M 105.5,209.5 C 106.906,209.973 107.573,210.973 107.5,212.5C 106.094,212.027 105.427,211.027 105.5,209.5 Z"/></g>
<g><path style="opacity:0.263" fill="#c4c4c4" d="M 228.5,204.5 C 225.727,211.052 221.727,216.719 216.5,221.5C 220.257,215.65 224.257,209.983 228.5,204.5 Z"/></g>
<g><path style="opacity:0.263" fill="#d0d0d0" d="M 107.5,212.5 C 109.262,213.262 110.262,214.596 110.5,216.5C 108.738,215.738 107.738,214.404 107.5,212.5 Z"/></g>
<g><path style="opacity:0.271" fill="#d1d1d1" d="M 110.5,216.5 C 112.914,217.911 114.581,219.911 115.5,222.5C 113.086,221.089 111.419,219.089 110.5,216.5 Z"/></g>
<g><path style="opacity:0.706" fill="#848484" d="M 115.5,222.5 C 116.833,223.167 117.833,224.167 118.5,225.5C 116.5,225.5 115.5,224.5 115.5,222.5 Z"/></g>
<g><path style="opacity:0.376" fill="#a6a6a6" d="M 314.5,221.5 C 315.534,223.817 314.534,224.817 311.5,224.5C 312.694,223.728 313.694,222.728 314.5,221.5 Z"/></g>
<g><path style="opacity:0.294" fill="#b3b3b3" d="M 420.5,221.5 C 425.001,223.916 429.334,226.583 433.5,229.5C 429.069,227.785 424.735,225.785 420.5,223.5C 419.227,222.743 419.227,222.077 420.5,221.5 Z"/></g>
<g><path style="opacity:0.804" fill="#595959" d="M 216.5,221.5 C 215.833,224.167 214.167,225.833 211.5,226.5C 212.833,224.5 214.5,222.833 216.5,221.5 Z"/></g>
<g><path style="opacity:0.878" fill="#787878" d="M 80.5,226.5 C 82.4456,227.035 83.4456,228.368 83.5,230.5C 82.0256,229.564 81.0256,228.23 80.5,226.5 Z"/></g>
<g><path style="opacity:0.043" fill="#c1c1c1" d="M 120.5,227.5 C 122.027,227.427 123.027,228.094 123.5,229.5C 121.973,229.573 120.973,228.906 120.5,227.5 Z"/></g>
<g><path style="opacity:0.498" fill="#939393" d="M 211.5,226.5 C 210.415,228.587 208.749,229.92 206.5,230.5C 207.585,228.413 209.251,227.08 211.5,226.5 Z"/></g>
<g><path style="opacity:0.62" fill="#797979" d="M 305.5,227.5 C 304.514,229.408 302.848,230.408 300.5,230.5C 301.659,228.75 303.326,227.75 305.5,227.5 Z"/></g>
<g><path style="opacity:0.808" fill="#848484" d="M 123.5,229.5 C 125.23,230.026 126.564,231.026 127.5,232.5C 125.368,232.446 124.035,231.446 123.5,229.5 Z"/></g>
<g><path style="opacity:0.635" fill="#878787" d="M 206.5,230.5 C 206.027,231.906 205.027,232.573 203.5,232.5C 203.973,231.094 204.973,230.427 206.5,230.5 Z"/></g>
<g><path style="opacity:0.184" fill="#bdbdbd" d="M 435.5,230.5 C 437.027,230.427 438.027,231.094 438.5,232.5C 436.973,232.573 435.973,231.906 435.5,230.5 Z"/></g>
<g><path style="opacity:0.09" fill="#c8c8c8" d="M 247.5,230.5 C 247.573,232.027 246.906,233.027 245.5,233.5C 245.427,231.973 246.094,230.973 247.5,230.5 Z"/></g>
<g><path style="opacity:0.612" fill="#969696" d="M 298.5,231.5 C 298.027,232.906 297.027,233.573 295.5,233.5C 295.973,232.094 296.973,231.427 298.5,231.5 Z"/></g>
<g><path style="opacity:0.667" fill="#7d7d7d" d="M 203.5,232.5 C 203.027,233.906 202.027,234.573 200.5,234.5C 200.973,233.094 201.973,232.427 203.5,232.5 Z"/></g>
<g><path style="opacity:0.812" fill="#787878" d="M 129.5,233.5 C 132.032,234.596 134.365,235.929 136.5,237.5C 133.318,237.416 130.985,236.083 129.5,233.5 Z"/></g>
<g><path style="opacity:0.627" fill="#7c7c7c" d="M 295.5,233.5 C 294.738,235.262 293.404,236.262 291.5,236.5C 292.262,234.738 293.596,233.738 295.5,233.5 Z"/></g>
<g><path style="opacity:0.784" fill="#888888" d="M 440.5,233.5 C 442.23,234.026 443.564,235.026 444.5,236.5C 442.368,236.446 441.035,235.446 440.5,233.5 Z"/></g>
<g><path style="opacity:0.035" fill="#cacaca" d="M 86.5,234.5 C 87.9063,234.973 88.573,235.973 88.5,237.5C 87.0937,237.027 86.427,236.027 86.5,234.5 Z"/></g>
<g><path style="opacity:0.016" fill="#cbcbcb" d="M 244.5,234.5 C 244.262,236.404 243.262,237.738 241.5,238.5C 241.738,236.596 242.738,235.262 244.5,234.5 Z"/></g>
<g><path style="opacity:0.851" fill="#777777" d="M 444.5,236.5 C 446.23,237.026 447.564,238.026 448.5,239.5C 446.368,239.446 445.035,238.446 444.5,236.5 Z"/></g>
<g><path style="opacity:0.004" fill="#cacaca" d="M 88.5,237.5 C 92.7852,241.119 96.7852,245.119 100.5,249.5C 95.5213,246.521 91.5213,242.521 88.5,237.5 Z"/></g>
<g><path style="opacity:0.592" fill="#8c8c8c" d="M 448.5,239.5 C 450.23,240.026 451.564,241.026 452.5,242.5C 450.368,242.446 449.035,241.446 448.5,239.5 Z"/></g>
<g><path style="opacity:0.075" fill="#dadada" d="M 400.5,247.5 C 389.894,244.486 379.061,242.82 368,242.5C 354.503,243.1 341.336,245.433 328.5,249.5C 347.009,241.475 366.342,239.308 386.5,243C 391.492,243.832 396.159,245.332 400.5,247.5 Z"/></g>
<g><path style="opacity:0.896" fill="#4f4f4f" d="M 179.5,242.5 C 175.966,244.048 172.133,244.714 168,244.5C 164.979,244.498 162.146,244.164 159.5,243.5C 166.196,243.609 172.863,243.276 179.5,242.5 Z"/></g>
<g><path style="opacity:0.02" fill="#e4e4e4" d="M 241.5,238.5 C 238.833,243.167 235.167,246.833 230.5,249.5C 233.833,245.5 237.5,241.833 241.5,238.5 Z"/></g>
<g><path style="opacity:0.733" fill="#757575" d="M 282.5,243.5 C 281.415,245.587 279.749,246.92 277.5,247.5C 278.585,245.413 280.251,244.08 282.5,243.5 Z"/></g>
<g><path style="opacity:0.006" fill="#e9e9e9" d="M 400.5,247.5 C 402.786,247.595 404.786,248.262 406.5,249.5C 404.102,249.741 402.102,249.074 400.5,247.5 Z"/></g>
<g><path style="opacity:0.694" fill="#949494" d="M 100.5,249.5 C 102.404,249.738 103.738,250.738 104.5,252.5C 102.596,252.262 101.262,251.262 100.5,249.5 Z"/></g>
<g><path style="opacity:0.647" fill="#b7b7b7" d="M 459.5,248.5 C 463.234,251.231 466.234,254.564 468.5,258.5C 464.766,255.769 461.766,252.436 459.5,248.5 Z"/></g>
<g><path style="opacity:0.267" fill="#d4d4d4" d="M 105.5,253.5 C 106.043,253.56 106.376,253.893 106.5,254.5C 105.675,255.386 104.675,255.719 103.5,255.5C 104.167,254.833 104.833,254.167 105.5,253.5 Z"/></g>
<g><path style="opacity:0.02" fill="#d1d1d1" d="M 225.5,253.5 C 232.456,256.645 239.123,260.311 245.5,264.5C 238.855,261.512 232.188,258.512 225.5,255.5C 224.227,254.743 224.227,254.077 225.5,253.5 Z"/></g>
<g><path style="opacity:0.541" fill="#858585" d="M 422.5,257.5 C 424.027,257.427 425.027,258.094 425.5,259.5C 423.973,259.573 422.973,258.906 422.5,257.5 Z"/></g>
<g><path style="opacity:0.706" fill="#939393" d="M 468.5,258.5 C 470.587,259.585 471.92,261.251 472.5,263.5C 470.413,262.415 469.08,260.749 468.5,258.5 Z"/></g>
<g><path style="opacity:0.286" fill="#cacaca" d="M 275.5,249.5 C 270.843,255.489 265.843,261.156 260.5,266.5C 262.7,262.12 265.533,258.12 269,254.5C 270.777,252.21 272.944,250.543 275.5,249.5 Z"/></g>
<g><path style="opacity:0.588" fill="#858585" d="M 425.5,259.5 C 427.404,259.738 428.738,260.738 429.5,262.5C 427.596,262.262 426.262,261.262 425.5,259.5 Z"/></g>
<g><path style="opacity:0.239" fill="#c0c0c0" d="M 103.5,255.5 C 97.151,259.341 90.4843,262.675 83.5,265.5C 89.5809,261.126 96.2476,257.793 103.5,255.5 Z"/></g>
<g><path style="opacity:0.49" fill="#a2a2a2" d="M 429.5,262.5 C 431.749,263.08 433.415,264.413 434.5,266.5C 432.251,265.92 430.585,264.587 429.5,262.5 Z"/></g>
<g><path style="opacity:0.545" fill="#909090" d="M 472.5,263.5 C 474.262,264.262 475.262,265.596 475.5,267.5C 473.738,266.738 472.738,265.404 472.5,263.5 Z"/></g>
<g><path style="opacity:0.298" fill="#b0b0b0" d="M 83.5,265.5 C 82.3406,267.25 80.674,268.25 78.5,268.5C 79.6594,266.75 81.326,265.75 83.5,265.5 Z"/></g>
<g><path style="opacity:0.282" fill="#b7b7b7" d="M 247.5,265.5 C 249.674,265.75 251.341,266.75 252.5,268.5C 250.326,268.25 248.659,267.25 247.5,265.5 Z"/></g>
<g><path style="opacity:0.753" fill="#868686" d="M 434.5,266.5 C 438.5,268.5 441.5,271.5 443.5,275.5C 440.167,272.833 437.167,269.833 434.5,266.5 Z"/></g>
<g><path style="opacity:0.035" fill="#cecece" d="M 301.5,266.5 C 301.027,267.906 300.027,268.573 298.5,268.5C 298.973,267.094 299.973,266.427 301.5,266.5 Z"/></g>
<g><path style="opacity:0.267" fill="#c2c2c2" d="M 260.5,266.5 C 260.297,268.044 259.63,269.378 258.5,270.5C 257.386,271.776 256.386,271.776 255.5,270.5C 257.154,269.25 258.821,267.916 260.5,266.5 Z"/></g>
<g><path style="opacity:0.635" fill="#868686" d="M 78.5,268.5 C 78.0269,269.906 77.0269,270.573 75.5,270.5C 75.9731,269.094 76.9731,268.427 78.5,268.5 Z"/></g>
<g><path style="opacity:0.251" fill="#b4b4b4" d="M 252.5,268.5 C 254.027,268.427 255.027,269.094 255.5,270.5C 253.973,270.573 252.973,269.906 252.5,268.5 Z"/></g>
<g><path style="opacity:0.486" fill="#a2a2a2" d="M 475.5,267.5 C 477.262,268.262 478.262,269.596 478.5,271.5C 476.738,270.738 475.738,269.404 475.5,267.5 Z"/></g>
<g><path style="opacity:0.678" fill="#7b7b7b" d="M 75.5,270.5 C 75.0269,271.906 74.0269,272.573 72.5,272.5C 72.9731,271.094 73.9731,270.427 75.5,270.5 Z"/></g>
<g><path style="opacity:0.663" fill="#7a7a7a" d="M 72.5,272.5 C 72.0269,273.906 71.0269,274.573 69.5,274.5C 69.9731,273.094 70.9731,272.427 72.5,272.5 Z"/></g>
<g><path style="opacity:0.243" fill="#c2c2c2" d="M 478.5,271.5 C 479.906,271.973 480.573,272.973 480.5,274.5C 479.094,274.027 478.427,273.027 478.5,271.5 Z"/></g>
<g><path style="opacity:0.604" fill="#808080" d="M 69.5,274.5 C 68.7377,276.262 67.4044,277.262 65.5,277.5C 66.2623,275.738 67.5956,274.738 69.5,274.5 Z"/></g>
<g><path style="opacity:0.251" fill="#b8b8b8" d="M 185.5,275.5 C 155.603,271.88 127.27,276.88 100.5,290.5C 126.96,274.812 155.293,269.812 185.5,275.5 Z"/></g>
<g><path style="opacity:0.231" fill="#c3c3c3" d="M 186.5,275.5 C 190.16,275.159 193.493,275.825 196.5,277.5C 192.922,277.451 189.589,276.785 186.5,275.5 Z"/></g>
<g><path style="opacity:0.078" fill="#b9b9b9" d="M 292.5,274.5 C 291.92,276.749 290.587,278.415 288.5,279.5C 289.08,277.251 290.413,275.585 292.5,274.5 Z"/></g>
<g><path style="opacity:0.004" fill="#d4d4d4" d="M 444.5,276.5 C 446.262,277.262 447.262,278.596 447.5,280.5C 445.738,279.738 444.738,278.404 444.5,276.5 Z"/></g>
<g><path style="opacity:0.62" fill="#818181" d="M 65.5,277.5 C 64.7377,279.262 63.4044,280.262 61.5,280.5C 62.2623,278.738 63.5956,277.738 65.5,277.5 Z"/></g>
<g><path style="opacity:0.243" fill="#bebebe" d="M 481.5,276.5 C 482.906,276.973 483.573,277.973 483.5,279.5C 482.094,279.027 481.427,278.027 481.5,276.5 Z"/></g>
<g><path style="opacity:0.09" fill="#cacaca" d="M 196.5,277.5 C 203.427,277.921 209.76,279.921 215.5,283.5C 208.949,281.87 202.616,279.87 196.5,277.5 Z"/></g>
<g><path style="opacity:0.024" fill="#d3d3d3" d="M 287.5,280.5 C 287.573,282.027 286.906,283.027 285.5,283.5C 285.427,281.973 286.094,280.973 287.5,280.5 Z"/></g>
<g><path style="opacity:0.02" fill="#cdcdcd" d="M 449.5,282.5 C 450.906,282.973 451.573,283.973 451.5,285.5C 450.094,285.027 449.427,284.027 449.5,282.5 Z"/></g>
<g><path style="opacity:0.78" fill="#6e6e6e" d="M 61.5,280.5 C 59.7607,283.243 57.4274,285.243 54.5,286.5C 56.2393,283.757 58.5726,281.757 61.5,280.5 Z"/></g>
<g><path style="opacity:0.022" fill="#e7e7e7" d="M 215.5,283.5 C 218.912,284.042 221.912,285.375 224.5,287.5C 221.088,286.958 218.088,285.625 215.5,283.5 Z"/></g>
<g><path style="opacity:0.004" fill="#dedede" d="M 451.5,285.5 C 452.906,285.973 453.573,286.973 453.5,288.5C 452.094,288.027 451.427,287.027 451.5,285.5 Z"/></g>
<g><path style="opacity:0.125" fill="#d3d3d3" d="M 484.5,281.5 C 487.207,284.247 488.873,287.58 489.5,291.5C 487.326,288.485 485.659,285.151 484.5,281.5 Z"/></g>
<g><path style="opacity:0.918" fill="#767676" d="M 453.5,288.5 C 455.048,288.821 455.715,289.821 455.5,291.5C 454.599,290.71 453.932,289.71 453.5,288.5 Z"/></g>
<g><path style="opacity:0.145" fill="#c9c9c9" d="M 285.5,283.5 C 284.565,285.861 283.232,288.028 281.5,290C 285.107,293.098 288.107,296.598 290.5,300.5C 286.656,297.489 283.322,293.989 280.5,290C 281.577,287.331 283.243,285.164 285.5,283.5 Z"/></g>
<g><path style="opacity:0.541" fill="#a9a9a9" d="M 54.5,286.5 C 50.1667,291.5 45.5,296.167 40.5,300.5C 44.1667,294.833 48.8333,290.167 54.5,286.5 Z"/></g>
<g><path style="opacity:0.525" fill="#868686" d="M 236.5,293.5 C 238.027,293.427 239.027,294.094 239.5,295.5C 237.973,295.573 236.973,294.906 236.5,293.5 Z"/></g>
<g><path style="opacity:0.502" fill="#949494" d="M 239.5,295.5 C 241.027,295.427 242.027,296.094 242.5,297.5C 240.973,297.573 239.973,296.906 239.5,295.5 Z"/></g>
<g><path style="opacity:0.569" fill="#818181" d="M 242.5,297.5 C 244.027,297.427 245.027,298.094 245.5,299.5C 243.973,299.573 242.973,298.906 242.5,297.5 Z"/></g>
<g><path style="opacity:0.051" fill="#e1e1e1" d="M 489.5,291.5 C 490.892,293.273 492.059,295.273 493,297.5C 495.306,304.249 497.473,310.916 499.5,317.5C 499.5,319.167 499.5,320.833 499.5,322.5C 496.597,312.121 493.263,301.788 489.5,291.5 Z"/></g>
<g><path style="opacity:0.816" fill="#7b7b7b" d="M 249.5,302.5 C 251.749,303.08 253.415,304.413 254.5,306.5C 252.251,305.92 250.585,304.587 249.5,302.5 Z"/></g>
<g><path style="opacity:0.663" fill="#979797" d="M 38.5,302.5 C 38.2624,304.404 37.2624,305.738 35.5,306.5C 35.7376,304.596 36.7376,303.262 38.5,302.5 Z"/></g>
<g><path style="opacity:0.067" fill="#c7c7c7" d="M 458.5,296.5 C 464.646,306.259 468.646,316.926 470.5,328.5C 470.66,330.355 469.993,331.688 468.5,332.5C 468.539,331.417 468.873,330.417 469.5,329.5C 466.821,318.129 463.154,307.129 458.5,296.5 Z"/></g>
<g><path style="opacity:0.478" fill="#a4a4a4" d="M 290.5,300.5 C 292.914,301.911 294.581,303.911 295.5,306.5C 293.086,305.089 291.419,303.089 290.5,300.5 Z"/></g>
<g><path style="opacity:0.745" fill="#838383" d="M 295.5,306.5 C 297.262,307.262 298.262,308.596 298.5,310.5C 296.738,309.738 295.738,308.404 295.5,306.5 Z"/></g>
<g><path style="opacity:0.761" fill="#959595" d="M 256.5,308.5 C 262.882,312.548 267.882,317.882 271.5,324.5C 266.528,319.193 261.528,313.86 256.5,308.5 Z"/></g>
<g><path style="opacity:0.396" fill="#929292" d="M 35.5,306.5 C 34.9202,308.749 33.5869,310.415 31.5,311.5C 32.0798,309.251 33.4131,307.585 35.5,306.5 Z"/></g>
<g><path style="opacity:0.635" fill="#7e7e7e" d="M 298.5,310.5 C 300.262,311.262 301.262,312.596 301.5,314.5C 299.738,313.738 298.738,312.404 298.5,310.5 Z"/></g>
<g><path style="opacity:0.553" fill="#939393" d="M 31.5,311.5 C 31.2624,313.404 30.2624,314.738 28.5,315.5C 28.7376,313.596 29.7376,312.262 31.5,311.5 Z"/></g>
<g><path style="opacity:0.561" fill="#818181" d="M 301.5,314.5 C 302.906,314.973 303.573,315.973 303.5,317.5C 302.094,317.027 301.427,316.027 301.5,314.5 Z"/></g>
<g><path style="opacity:0.435" fill="#9d9d9d" d="M 28.5,315.5 C 28.573,317.027 27.9063,318.027 26.5,318.5C 26.427,316.973 27.0937,315.973 28.5,315.5 Z"/></g>
<g><path style="opacity:0.561" fill="#7b7b7b" d="M 303.5,317.5 C 304.906,317.973 305.573,318.973 305.5,320.5C 304.094,320.027 303.427,319.027 303.5,317.5 Z"/></g>
<g><path style="opacity:0.424" fill="#9f9f9f" d="M 26.5,318.5 C 26.573,320.027 25.9063,321.027 24.5,321.5C 24.427,319.973 25.0937,318.973 26.5,318.5 Z"/></g>
<g><path style="opacity:0.051" fill="#cdcdcd" d="M 64.5,318.5 C 63.5806,321.089 61.914,323.089 59.5,324.5C 60.4194,321.911 62.086,319.911 64.5,318.5 Z"/></g>
<g><path style="opacity:0.525" fill="#828282" d="M 305.5,320.5 C 306.906,320.973 307.573,321.973 307.5,323.5C 306.094,323.027 305.427,322.027 305.5,320.5 Z"/></g>
<g><path style="opacity:0.925" fill="#676767" d="M 24.5,321.5 C 24.4077,323.848 23.4077,325.514 21.5,326.5C 21.7497,324.326 22.7497,322.659 24.5,321.5 Z"/></g>
<g><path style="opacity:0.008" fill="#d7d7d7" d="M 271.5,324.5 C 273.262,325.262 274.262,326.596 274.5,328.5C 272.738,327.738 271.738,326.404 271.5,324.5 Z"/></g>
<g><path style="opacity:0.435" fill="#9b9b9b" d="M 307.5,323.5 C 308.906,323.973 309.573,324.973 309.5,326.5C 308.094,326.027 307.427,325.027 307.5,323.5 Z"/></g>
<g><path style="opacity:0.016" fill="#dadada" d="M 58.5,325.5 C 58.573,327.027 57.9063,328.027 56.5,328.5C 56.427,326.973 57.0937,325.973 58.5,325.5 Z"/></g>
<g><path style="opacity:0.725" fill="#9e9e9e" d="M 274.5,328.5 C 276.531,329.539 277.864,331.205 278.5,333.5C 276.457,332.421 275.124,330.754 274.5,328.5 Z"/></g>
<g><path style="opacity:0.925" fill="#6d6d6d" d="M 21.5,326.5 C 21.4077,328.848 20.4077,330.514 18.5,331.5C 18.7497,329.326 19.7497,327.659 21.5,326.5 Z"/></g>
<g><path style="opacity:0.004" fill="#dcdcdc" d="M 55.5,329.5 C 55.573,331.027 54.9063,332.027 53.5,332.5C 53.427,330.973 54.0937,329.973 55.5,329.5 Z"/></g>
<g><path style="opacity:0.333" fill="#aeaeae" d="M 310.5,328.5 C 311.906,328.973 312.573,329.973 312.5,331.5C 311.094,331.027 310.427,330.027 310.5,328.5 Z"/></g>
<g><path style="opacity:0.012" fill="#fdfdfd" d="M 312.5,331.5 C 364.428,332.495 416.428,332.829 468.5,332.5C 442.669,333.167 416.669,333.5 390.5,333.5C 364.158,333.5 338.158,332.833 312.5,331.5 Z"/></g>
<g><path style="opacity:0.118" fill="#cfcfcf" d="M 18.5,331.5 C 15.4032,338.691 12.0699,345.691 8.5,352.5C 10.5162,344.804 13.8495,337.804 18.5,331.5 Z"/></g>
<g><path style="opacity:0.122" fill="#d2d2d2" d="M 499.5,335.5 C 499.5,337.167 499.5,338.833 499.5,340.5C 498.256,343.982 496.256,346.982 493.5,349.5C 495.539,344.765 497.539,340.099 499.5,335.5 Z"/></g>
<g><path style="opacity:0.016" fill="#dfdfdf" d="M 493.5,349.5 C 492.833,352.167 491.167,353.833 488.5,354.5C 489.833,352.5 491.5,350.833 493.5,349.5 Z"/></g>
<g><path style="opacity:0.094" fill="#cccccc" d="M 40.5,354.5 C 35.8307,366.51 32.164,378.844 29.5,391.5C 30.3721,393.45 31.0388,395.45 31.5,397.5C 29.3199,395.969 28.3199,393.802 28.5,391C 30.631,378.108 34.631,365.942 40.5,354.5 Z"/></g>
<g><path style="opacity:0.024" fill="#d9d9d9" d="M 486.5,356.5 C 486.027,357.906 485.027,358.573 483.5,358.5C 483.973,357.094 484.973,356.427 486.5,356.5 Z"/></g>
<g><path style="opacity:0.239" fill="#bfbfbf" d="M 481.5,359.5 C 479.266,361.446 476.599,362.613 473.5,363C 424.5,363.333 375.5,363.667 326.5,364C 327.337,365.011 327.67,366.178 327.5,367.5C 327.5,368.167 327.5,368.833 327.5,369.5C 326.388,367.401 325.721,365.067 325.5,362.5C 374.168,362.667 422.834,362.5 471.5,362C 474.824,361.057 478.157,360.224 481.5,359.5 Z"/></g>
<g><path style="opacity:0.067" fill="#d1d1d1" d="M 292.5,359.5 C 297.607,369.493 300.94,380.16 302.5,391.5C 302.389,393.714 301.722,395.714 300.5,397.5C 300.167,397.5 299.833,397.5 299.5,397.5C 300.527,393.554 300.694,389.554 300,385.5C 297.804,376.713 295.304,368.046 292.5,359.5 Z"/></g>
<g><path style="opacity:0.016" fill="#e6e6e6" d="M 8.5,352.5 C 5.32284,362.892 2.32284,373.225 -0.5,383.5C -0.5,381.833 -0.5,380.167 -0.5,378.5C 1.70016,369.567 4.70016,360.9 8.5,352.5 Z"/></g>
<g><path style="opacity:0.013" fill="#ececec" d="M 327.5,367.5 C 333.311,380.895 333.811,394.561 329,408.5C 327.629,411.266 325.796,413.599 323.5,415.5C 332.654,400.987 333.988,385.654 327.5,369.5C 327.5,368.833 327.5,368.167 327.5,367.5 Z"/></g>
<g><path style="opacity:0.024" fill="#dddddd" d="M -0.5,397.5 C 0.86993,400.619 1.86993,403.952 2.5,407.5C 1.06521,406.087 0.0652098,404.42 -0.5,402.5C -0.5,400.833 -0.5,399.167 -0.5,397.5 Z"/></g>
<g><path style="opacity:0.631" fill="#575757" d="M 299.5,397.5 C 299.833,397.5 300.167,397.5 300.5,397.5C 299.547,399.61 297.881,400.777 295.5,401C 208.833,401.667 122.167,401.667 35.5,401C 34.5842,400.722 33.9175,400.222 33.5,399.5C 120.472,400.659 207.472,400.825 294.5,400C 296.452,399.634 298.118,398.801 299.5,397.5 Z"/></g>
<g><path style="opacity:0.031" fill="#e7e7e7" d="M 2.5,407.5 C 3.67373,408.514 4.3404,409.847 4.5,411.5C 2.89578,410.713 2.22911,409.38 2.5,407.5 Z"/></g>
<g><path style="opacity:0.075" fill="#d4d4d4" d="M 4.5,411.5 C 5.90632,411.973 6.57298,412.973 6.5,414.5C 5.09368,414.027 4.42702,413.027 4.5,411.5 Z"/></g>
<g><path style="opacity:0.004" fill="#cccccc" d="M 6.5,414.5 C 9.16667,416.5 11.5,418.833 13.5,421.5C 10.1667,420.167 7.83333,417.833 6.5,414.5 Z"/></g>
<g><path style="opacity:0.027" fill="#d9d9d9" d="M 323.5,415.5 C 322.5,418.5 320.5,420.5 317.5,421.5C 319.167,419.167 321.167,417.167 323.5,415.5 Z"/></g>
<g><path style="opacity:0.647" fill="#7a7a7a" d="M 13.5,421.5 C 15.4044,421.738 16.7377,422.738 17.5,424.5C 15.5956,424.262 14.2623,423.262 13.5,421.5 Z"/></g>
<g><path style="opacity:0.302" fill="#aaaaaa" d="M 19.5,425.5 C 21.0269,425.427 22.0269,426.094 22.5,427.5C 20.9731,427.573 19.9731,426.906 19.5,425.5 Z"/></g>
<g><path style="opacity:0.663" fill="#4e4e4e" d="M 23.5,427.5 C 26.5219,427.804 29.5219,428.304 32.5,429C 122.166,429.5 211.833,429.667 301.5,429.5C 211.001,430.666 120.334,430.832 29.5,430C 27.2774,429.434 25.2774,428.6 23.5,427.5 Z"/></g>
</svg>
